PathFileType	4	(X/Y/Z)	C:\Users\Biomechanik\SynologyDrive\AlexP\Athlete_03\Athlete_3_25_03_31\Squat_35kg_01\marker_experimental.trc
DataRate	CameraRate	NumFrames	NumMarkers	Units	OrigDataRate	OrigDataStartFrame	OrigNumFrames
200.000000	200.000000	4	55	mm	200.000000	565	646
Frame#	Time	BL			BR			GLAB			RFHD			LFHD			C7			T6			SPINMOL			SPINM2			SPINM3			T12			BELTOL			BELT2			BELT3			SACROL			SACR2			SACR3			LTHOL			LTH2			LTH3			LSHAOL			LSHA2			LSHA3			LHEE			LTOE			LM5			RTHOL			RTH2			RTH3			RSHAOL			RSHA2			RSHA3			RHEE			RTOE			RM5			STRN			XIPH			LACR			LUAOL			LUA2			LUA3			LLAOL			LLA2			LLA3			LWRR			LWRU			RACR			RUAOL			RUA2			RUA3			RLAOL			RLA2			RLA3			RWRR			RWRU			
		X1	Y1	Z1	X2	Y2	Z2	X3	Y3	Z3	X4	Y4	Z4	X5	Y5	Z5	X6	Y6	Z6	X7	Y7	Z7	X8	Y8	Z8	X9	Y9	Z9	X10	Y10	Z10	X11	Y11	Z11	X12	Y12	Z12	X13	Y13	Z13	X14	Y14	Z14	X15	Y15	Z15	X16	Y16	Z16	X17	Y17	Z17	X18	Y18	Z18	X19	Y19	Z19	X20	Y20	Z20	X21	Y21	Z21	X22	Y22	Z22	X23	Y23	Z23	X24	Y24	Z24	X25	Y25	Z25	X26	Y26	Z26	X27	Y27	Z27	X28	Y28	Z28	X29	Y29	Z29	X30	Y30	Z30	X31	Y31	Z31	X32	Y32	Z32	X33	Y33	Z33	X34	Y34	Z34	X35	Y35	Z35	X36	Y36	Z36	X37	Y37	Z37	X38	Y38	Z38	X39	Y39	Z39	X40	Y40	Z40	X41	Y41	Z41	X42	Y42	Z42	X43	Y43	Z43	X44	Y44	Z44	X45	Y45	Z45	X46	Y46	Z46	X47	Y47	Z47	X48	Y48	Z48	X49	Y49	Z49	X50	Y50	Z50	X51	Y51	Z51	X52	Y52	Z52	X53	Y53	Z53	X54	Y54	Z54	X55	Y55	Z55	

566	2.825	214.6481781005859	1328.042236328125	-2210.3505859375	203.0050811767578	1331.003295898438	-189.7171630859374	480.9384460449219	1528.529052734375	-1170.80517578125	429.8548583984375	1550.689331054688	-1107.31396484375	435.312255859375	1549.854125976562	-1242.252075195312	250.8720855712891	1392.514892578125	-1180.300659179688	148.1215515136719	1249.21728515625	-1189.31689453125	133.3406219482422	1220.71923828125	-1208.517211914062	122.4046096801758	1212.957885742188	-1160.121948242188	113.276252746582	1158.758422851562	-1196.824951171875	99.47879028320312	1100.946411132812	-1198.67822265625	65.62697601318359	1084.957397460938	-1215.595703125	61.98886871337891	1081.28857421875	-1165.478149414062	35.36579132080078	1029.162353515625	-1196.663940429688	-3.945080518722534	944.8244018554689	-1225.805297851562	-5.242804050445557	943.8765258789064	-1174.209716796875	-20.35691070556641	885.1834716796876	-1201.372680664062	99.65877532958984	663.1804809570314	-1432.73046875	75.59915924072266	589.6412963867189	-1414.4296875	116.4386596679688	604.4921264648439	-1440.18896484375	126.7165069580078	334.1819152832032	-1530.0205078125	81.83254241943359	269.3708496093751	-1518.365600585938	129.0605010986328	272.4862060546876	-1536.615478515625	76.28621673583984	69.39865875244149	-1488.487426757812	283.4905090332031	50.59491348266611	-1545.493408203125	216.3509826660156	24.99348068237315	-1633.692749023438	60.90650177001953	669.1386108398439	-967.732177734375	115.8825759887695	640.65576171875	-917.022705078125	86.02017211914062	615.7326660156251	-947.7342529296875	82.08052825927734	351.6120605468751	-863.9408569335938	110.5174865722656	282.8213806152344	-838.4921875	69.87577819824219	290.2932128906251	-866.2275390625	52.79769134521484	63.7343368530274	-913.8926391601562	250.3606414794922	48.30183792114263	-834.3267211914062	168.5928497314453	35.32504272460942	-755.0399780273438	388.0375671386719	1255.612426757812	-1181.020263671875	373.7562561035156	1108.561889648438	-1181.33837890625	289.6497192382812	1352.25244140625	-1343.621704101562	174.5177764892578	1247.025268554688	-1436.026733398438	128.4400177001953	1201.303466796875	-1425.348999023438	156.1355133056641	1193.1083984375	-1467.6748046875	129.0781097412109	1126.349487304688	-1540.084838867188	198.9066467285156	1125.501831054688	-1578.1884765625	170.4900054931641	1165.091796875	-1564.108276367188	219.5872802734375	1250.205688476562	-1598.528564453125	241.0277099609375	1269.768676757812	-1524.20703125	293.9276123046875	1348.673706054688	-1021.818664550781	179.2731781005859	1245.99462890625	-943.2935180664061	149.9409027099609	1194.06494140625	-914.5886840820311	130.0855560302734	1206.153198242188	-961.3022460937499	131.6223602294922	1122.412963867188	-828.1660766601561	139.65625	1201.026123046875	-814.8012695312499	170.3346862792969	1163.109985351562	-800.9161376953124	207.7425842285156	1245.287963867188	-775.6062011718749	240.6906280517578	1274.92041015625	-842.9755249023436	
567	2.83	214.3643951416016	1330.096435546875	-2210.28515625	202.7390747070312	1332.8603515625	-189.6547088623046	480.4244384765625	1530.538208007812	-1170.768920898438	429.3202819824219	1552.68017578125	-1107.279418945312	434.7940368652344	1551.829956054688	-1242.2216796875	250.4434967041016	1394.4140625	-1180.232543945312	147.8599243164062	1250.817016601562	-1189.305541992188	132.9836730957031	1222.221923828125	-1208.495727539062	122.1007690429688	1214.433837890625	-1160.085327148438	113.0750961303711	1160.214111328125	-1196.782348632812	99.57462310791016	1102.14306640625	-1198.72509765625	65.8359375	1085.903076171875	-1215.746215820312	62.20716094970703	1082.173217773438	-1165.655395507812	35.83817672729492	1029.933959960938	-1196.883666992188	-2.923519134521484	945.6939086914064	-1226.079223632812	-4.29685640335083	944.7006225585939	-1174.485107421875	-19.18982887268066	885.9920043945314	-1201.716674804688	99.84626007080078	664.1388549804689	-1432.139526367188	75.26015472412109	590.8568115234376	-1413.417602539062	116.1506729125977	605.2651977539064	-1439.33544921875	125.7093200683594	334.2100830078126	-1529.001831054688	81.09223937988281	269.1980895996095	-1517.48779296875	128.2877960205078	272.5438842773439	-1535.792846679688	76.32137298583984	69.3797149658204	-1488.446411132812	283.5009155273438	50.5940704345704	-1545.505249023438	216.3437347412109	24.99493789672862	-1633.6953125	60.83292007446289	670.1262207031251	-968.8908081054688	115.591438293457	640.9959106445312	-918.3051147460938	85.49657440185547	616.4430541992189	-949.093505859375	80.91468048095703	351.5678405761719	-865.4014282226562	109.6081161499023	283.0225524902344	-839.6012573242188	68.98452758789062	290.2045898437501	-867.4331665039062	52.83468246459961	63.66429901123053	-913.9618530273438	250.3800201416016	48.28456497192388	-834.340087890625	168.6053924560547	35.34332656860357	-755.0635986328125	387.7764282226562	1257.63916015625	-1180.942626953125	373.7103271484375	1110.61669921875	-1181.289184570312	289.3391418457031	1354.260009765625	-1343.542602539062	174.2860717773438	1248.990478515625	-1435.966918945312	128.2399749755859	1203.23193359375	-1425.314819335938	155.9486999511719	1195.076904296875	-1467.645751953125	128.9558563232422	1128.318115234375	-1540.082641601562	198.8024139404297	1127.551879882812	-1578.157470703125	170.3368988037109	1167.108154296875	-1564.080810546875	219.3534851074219	1252.269653320312	-1598.47314453125	240.7984619140625	1271.824340820312	-1524.1494140625	293.5928344726562	1350.666015625	-1021.734619140625	179.0589752197266	1247.874755859375	-943.2479858398436	149.7520904541016	1195.949584960938	-914.5203857421874	129.8692016601562	1208.019653320312	-961.2183837890624	131.4822692871094	1124.373779296875	-828.0284423828124	139.4764404296875	1202.9970703125	-814.7154541015624	170.1570129394531	1165.114013671875	-800.7921142578124	207.5225219726562	1247.3046875	-775.5227661132811	240.4708709716797	1276.932006835938	-842.9082641601561	
568	2.835	214.0849456787109	1332.036743164063	-2210.221923828125	202.4871215820312	1334.608520507812	-189.5941467285155	479.9141235351562	1532.431640625	-1170.745727539062	428.7928161621094	1554.557006835938	-1107.256225585938	434.27197265625	1553.68359375	-1242.200805664062	250.0260467529297	1396.199462890625	-1180.162719726562	147.5996246337891	1252.316162109375	-1189.298461914062	132.6193695068359	1223.629028320312	-1208.478271484375	121.7897262573242	1215.81591796875	-1160.051879882812	112.856086730957	1161.577880859375	-1196.744140625	99.65517425537109	1103.24267578125	-1198.776245117188	66.03144073486328	1086.748168945312	-1215.901611328125	62.41195297241211	1082.95849609375	-1165.83642578125	36.2938346862793	1030.607421875	-1197.111328125	-1.923550128936768	946.4638671875001	-1226.3505859375	-3.371023416519165	945.4224243164064	-1174.757568359375	-18.03376770019531	886.6976318359376	-1202.058715820312	100.0407867431641	665.0288696289064	-1431.569946289062	74.951904296875	592.0045166015626	-1412.441772460938	115.8829574584961	605.9840698242189	-1438.517700195312	124.7383422851562	334.2258300781251	-1528.02392578125	80.37644958496094	269.0205078125001	-1516.657348632812	127.5441436767578	272.5886840820314	-1535.004760742188	76.35382080078125	69.35971069335946	-1488.410034179688	283.510986328125	50.59473037719736	-1545.520263671875	216.3362884521484	24.99260330200205	-1633.701538085938	60.7861328125	671.0372314453126	-970.0206298828125	115.3285827636719	641.2845458984375	-919.5545654296875	85.00925445556641	617.0904541015626	-950.4131469726562	79.80892944335938	351.5086669921876	-866.8096313476562	108.7553482055664	283.2012023925782	-840.6824951171875	68.14277648925781	290.1045532226563	-868.5946044921875	52.87719345092773	63.59905624389654	-914.0342407226562	250.4016723632812	48.26555633544927	-834.3516845703125	168.6187133789062	35.36182785034185	-755.087646484375	387.5168762207031	1259.532592773438	-1180.8642578125	373.6465148925781	1112.542114257812	-1181.242919921875	289.0413513183594	1356.156982421875	-1343.463134765625	174.0584869384766	1250.854736328125	-1435.902709960938	128.0366668701172	1205.06787109375	-1425.278198242188	155.7615661621094	1196.945556640625	-1467.6083984375	128.8213195800781	1130.193969726562	-1540.0732421875	198.6833190917969	1129.50048828125	-1578.12255859375	170.1751098632812	1169.026489257812	-1564.04833984375	219.1186370849609	1254.227783203125	-1598.417358398438	240.572509765625	1273.7734375	-1524.0927734375	293.2682189941406	1352.53466796875	-1021.6494140625	178.841552734375	1249.648559570312	-943.2041015624999	149.5464935302734	1197.736694335938	-914.4508056640624	129.6431121826172	1209.78759765625	-961.1369628906249	131.3129425048828	1126.237548828125	-827.8906249999999	139.2673492431641	1204.872436523438	-814.6312255859374	169.9566497802734	1167.014404296875	-800.6677246093749	207.2943115234375	1249.212158203125	-775.4392700195311	240.2469787597656	1278.827270507812	-842.8403320312499	
569	2.84	213.8097991943359	1333.863647460938	-2210.160400390625	202.2492218017578	1336.248901367188	-189.5352020263671	479.4086608886719	1534.212768554688	-1170.734741210938	428.2742614746094	1556.323364257812	-1107.243774414062	433.7466125488281	1555.4189453125	-1242.188232421875	249.6205749511719	1397.8740234375	-1180.089965820312	147.3408660888672	1253.719604492188	-1189.29443359375	132.2498626708984	1224.944946289062	-1208.463989257812	121.471923828125	1217.109741210938	-1160.020874023438	112.6211242675781	1162.854125976562	-1196.708740234375	99.72089385986328	1104.249267578125	-1198.831176757812	66.21426391601562	1087.496704101562	-1216.061401367188	62.60304260253906	1083.649169921875	-1166.019775390625	36.73471832275391	1031.187255859375	-1197.343505859375	-0.9477341175079346	947.1373291015626	-1226.618408203125	-2.467275619506836	946.0454711914064	-1175.02587890625	-16.89138221740723	887.3037719726564	-1202.397583007812	100.2417297363281	665.8546142578126	-1431.023681640625	74.67084503173828	593.0880737304689	-1411.506591796875	115.6340560913086	606.6522216796876	-1437.7373046875	123.8007736206055	334.2310485839845	-1527.0869140625	79.68231201171875	268.8396911621095	-1515.87451171875	126.8269348144531	272.6221008300782	-1534.251708984375	76.38316345214844	69.3387985229493	-1488.378540039062	283.5207824707031	50.59769821167001	-1545.538696289062	216.3285980224609	24.98605537414561	-1633.711791992188	60.76713943481445	671.8762207031251	-971.117919921875	115.0962524414062	641.5264892578125	-920.7676391601562	84.55988311767578	617.6794433593751	-951.689208984375	78.76309204101562	351.4369506835938	-868.1624145507812	107.9586486816406	283.3589782714844	-841.7330932617188	67.34934997558594	289.9952697753907	-869.708740234375	52.92355728149414	63.53942871093756	-914.1087646484375	250.4252319335938	48.24508666992192	-834.361328125	168.6325531005859	35.38025665283208	-755.1116943359375	387.2600708007812	1261.296997070312	-1180.784790039062	373.5670471191406	1114.342163085938	-1181.19970703125	288.7548828125	1357.946166992188	-1343.382934570312	173.8359985351562	1252.618530273438	-1435.835205078125	127.8314666748047	1206.81103515625	-1425.24072265625	155.5762481689453	1198.71435546875	-1467.563598632812	128.6775817871094	1131.976684570312	-1540.0576171875	198.5524749755859	1131.348022460938	-1578.084716796875	170.0071258544922	1170.846801757812	-1564.012084960938	218.8838195800781	1256.081420898438	-1598.361694335938	240.3502044677734	1275.617431640625	-1524.037109375	292.9532165527344	1354.282958984375	-1021.563354492187	178.6193389892578	1251.319213867188	-943.1630249023436	149.3232269287109	1199.428833007812	-914.3814086914061	129.4065704345703	1211.45947265625	-961.0597534179686	131.1135559082031	1128.005615234375	-827.7551269531249	139.0284118652344	1206.653930664062	-814.5507812499999	169.7327575683594	1168.812133789062	-800.5449218749999	207.0575103759766	1251.010986328125	-775.3566894531249	240.0184478759766	1280.607543945312	-842.7725219726561	
